<svg xmlns="http://www.w3.org/2000/svg" viewBox="0 0 221.58 222.63"><defs><style>.a{fill:#cf142b;}.b{fill:#fff;}.c{fill:#002a8f;}</style></defs><title>salsativity</title><path class="a" d="M221.58,52.61V173.28a49.38,49.38,0,0,1-49.24,49.23h-5.78l-10-71.3a3.23,3.23,0,0,1,3.23-3.35h17.65a2,2,0,0,0,2-2V113.21a2,2,0,0,0-2-2H160c-1.83,0-1.6.3-2.53-1.28L121.41,47.59a2,2,0,0,0-1.75-1H100.5a2,2,0,0,0-1.76,1l-34.62,62.3c-.93,1.58-.7,1.28-2.53,1.28H44.14a2,2,0,0,0-2,2v32.63a2,2,0,0,0,2,2H61.8A3.23,3.23,0,0,1,65,151.21s-9.31,71.3-10,71.3H49.24A49.38,49.38,0,0,1,0,173.28V52.61A52.88,52.88,0,0,1,52.72,0H168.86A52.87,52.87,0,0,1,221.58,52.61Z"/><rect x="77.67" y="222.51" width="26.89" height="0.12"/><rect x="117.02" y="222.51" width="26.88" height="0.12"/><path class="b" d="M177.44,111.2H160c-1.83,0-1.6.3-2.53-1.28L121.41,47.59a2,2,0,0,0-1.75-1H100.5a2,2,0,0,0-1.76,1l-34.62,62.3c-.93,1.58-.7,1.28-2.53,1.28H44.14a2,2,0,0,0-2,2v32.63a2,2,0,0,0,2,2H61.8A3.23,3.23,0,0,1,65,151.21s-9.31,71.3-10,71.3H77.67c0-33.76,0-75,0-95.2a3.85,3.85,0,0,1,7-2.14l.07.1c2.89,4.35,5.67,8.79,8.55,13.15,3.14,4.77,6.22,9.59,9.59,14.2a9.39,9.39,0,0,1,1.62,6.11q0,31.89,0,63.78H117q0-31.89,0-63.78a9.38,9.38,0,0,1,1.61-6.11c3.38-4.61,6.45-9.43,9.6-14.2,2.87-4.36,5.66-8.8,8.55-13.15a.36.36,0,0,1,.07-.1,3.85,3.85,0,0,1,7,2.14c0,20.21,0,61.45,0,95.2h22.66l-10-71.3a3.23,3.23,0,0,1,3.23-3.35h17.65a2,2,0,0,0,2-2V113.21A2,2,0,0,0,177.44,111.2ZM123.9,133.73C122,136.25,117,141.62,113.73,145a3.77,3.77,0,0,1-2.38,1.16v-.06a2.67,2.67,0,0,1-.56.06,2.76,2.76,0,0,1-.57-.06v.06a3.72,3.72,0,0,1-2.37-1.16c-3.23-3.4-8.24-8.77-10.17-11.29-16.72-21.92,2.79-31.22,11.59-22.22a3.59,3.59,0,0,0,1,.7v.36a3.63,3.63,0,0,0,.57-.13,3.5,3.5,0,0,0,.56.13v-.36a3.59,3.59,0,0,0,1-.7C121.11,102.51,140.62,111.81,123.9,133.73Z"/><path class="a" d="M123.9,133.73C122,136.25,117,141.62,113.73,145a3.77,3.77,0,0,1-2.38,1.16v-.06a2.67,2.67,0,0,1-.56.06,2.76,2.76,0,0,1-.57-.06v.06a3.72,3.72,0,0,1-2.37-1.16c-3.23-3.4-8.24-8.77-10.17-11.29-16.72-21.92,2.79-31.22,11.59-22.22a3.59,3.59,0,0,0,1,.7v.36a3.63,3.63,0,0,0,.57-.13,3.5,3.5,0,0,0,.56.13v-.36a3.59,3.59,0,0,0,1-.7C121.11,102.51,140.62,111.81,123.9,133.73Z"/><path class="c" d="M143.9,222.51H117q0-31.89,0-63.78a9.38,9.38,0,0,1,1.61-6.11c3.38-4.61,6.45-9.43,9.6-14.2,2.87-4.36,5.66-8.8,8.55-13.15a.36.36,0,0,1,.07-.1,3.85,3.85,0,0,1,7,2.14C143.88,147.52,143.89,188.76,143.9,222.51Z"/><path class="c" d="M104.58,158.73q0,31.89,0,63.78H77.67c0-33.76,0-75,0-95.2a3.85,3.85,0,0,1,7-2.14l.07.1c2.89,4.35,5.67,8.79,8.55,13.15,3.14,4.77,6.22,9.59,9.59,14.2A9.39,9.39,0,0,1,104.58,158.73Z"/></svg>